<svg width="25" height="25" viewBox="0 0 25 25" fill="none" xmlns="http://www.w3.org/2000/svg">
<g clip-path="url(#clip0_480_1737)">
<path d="M24.8011 8.55C17.8804 2.14883 7.11676 2.15117 0.198795 8.55C-0.0613614 8.79063 -0.0664395 9.19805 0.185123 9.44766L1.52262 10.7746C1.76247 11.0129 2.1484 11.018 2.39762 10.7895C8.09762 5.56758 16.9015 5.56641 22.6027 10.7895C22.8519 11.018 23.2379 11.0125 23.4777 10.7746L24.8152 9.44766C25.0664 9.19805 25.0613 8.79063 24.8011 8.55ZM12.5 16.25C11.1191 16.25 9.99997 17.3691 9.99997 18.75C9.99997 20.1309 11.1191 21.25 12.5 21.25C13.8808 21.25 15 20.1309 15 18.75C15 17.3691 13.8808 16.25 12.5 16.25ZM20.4168 12.9848C15.9144 9.00313 9.08044 9.00742 4.58317 12.9848C4.31364 13.223 4.30504 13.6367 4.5609 13.8891L5.90622 15.2168C6.14059 15.448 6.51794 15.4637 6.76754 15.248C10.0468 12.4133 14.9605 12.4195 18.232 15.248C18.4816 15.4637 18.859 15.4484 19.0933 15.2168L20.4386 13.8891C20.6949 13.6367 20.6859 13.2227 20.4168 12.9848Z" fill="#1E272E"/>
</g>
<defs>
<clipPath id="clip0_480_1737">
<rect width="25" height="25" fill="white"/>
</clipPath>
</defs>
</svg>
