<svg width="25" height="25" viewBox="0 0 25 25" fill="none" xmlns="http://www.w3.org/2000/svg">
<path d="M24.375 18.75H23.75C22.7328 18.75 21.9609 18.4211 21.559 18.0508C21.2113 17.7301 20.791 17.5 20.318 17.5H19.6812C19.2082 17.5 18.7879 17.7301 18.4402 18.0508C18.0391 18.4211 17.2672 18.75 16.25 18.75C15.2328 18.75 14.4609 18.4211 14.059 18.0508C13.7113 17.7301 13.291 17.5 12.818 17.5H12.1812C11.7082 17.5 11.2879 17.7301 10.9402 18.0508C10.5391 18.4211 9.76719 18.75 8.75 18.75C7.73281 18.75 6.96094 18.4211 6.55898 18.0508C6.21133 17.7301 5.79102 17.5 5.31797 17.5H4.68125C4.2082 17.5 3.78789 17.7301 3.44023 18.0508C3.03906 18.4211 2.26719 18.75 1.25 18.75H0.625C0.279687 18.75 0 19.0297 0 19.375V20.625C0 20.9703 0.279687 21.25 0.625 21.25H1.25C2.75859 21.25 4.09062 20.7738 5 20.0063C5.90938 20.7742 7.24141 21.25 8.75 21.25C10.2586 21.25 11.5906 20.7738 12.5 20.0063C13.4094 20.7742 14.7414 21.25 16.25 21.25C17.7586 21.25 19.0906 20.7738 20 20.0063C20.9094 20.7742 22.2414 21.25 23.75 21.25H24.375C24.7203 21.25 25 20.9703 25 20.625V19.375C25 19.0297 24.7203 18.75 24.375 18.75ZM8.75 17.5V13.75H16.25V17.5C16.9969 17.5 17.4555 17.2594 17.5934 17.132C17.9516 16.8016 18.3434 16.5719 18.75 16.4262V7.5C18.75 6.81094 19.3109 6.25 20 6.25C20.6891 6.25 21.25 6.81094 21.25 7.5V8.125C21.25 8.47031 21.5297 8.75 21.875 8.75H23.125C23.4703 8.75 23.75 8.47031 23.75 8.125V7.5C23.75 5.43203 22.068 3.75 20 3.75C17.932 3.75 16.25 5.43203 16.25 7.5V11.25H8.75V7.5C8.75 6.81094 9.31094 6.25 10 6.25C10.6891 6.25 11.25 6.81094 11.25 7.5V8.125C11.25 8.47031 11.5297 8.75 11.875 8.75H13.125C13.4703 8.75 13.75 8.47031 13.75 8.125V7.5C13.75 5.43203 12.068 3.75 10 3.75C7.93203 3.75 6.25 5.43203 6.25 7.5V16.4258C6.65664 16.5715 7.04844 16.8016 7.40664 17.1316C7.54453 17.2594 8.00313 17.5 8.75 17.5Z" fill="#1E272E"/>
</svg>
