<svg width="25" height="25" viewBox="0 0 25 25" fill="none" xmlns="http://www.w3.org/2000/svg">
<path d="M22.2002 10.3677L21.6514 8.99561L20.6782 6.5625C19.8428 4.47412 17.8501 3.125 15.6006 3.125H9.39941C7.15039 3.125 5.15723 4.47412 4.32178 6.5625L3.34863 8.99561L2.7998 10.3677C1.62207 10.8154 0.78125 11.9463 0.78125 13.2812V15.625C0.78125 16.4121 1.08203 17.1226 1.5625 17.6724V20.3125C1.5625 21.1753 2.26221 21.875 3.125 21.875H4.6875C5.55029 21.875 6.25 21.1753 6.25 20.3125V18.75H18.75V20.3125C18.75 21.1753 19.4497 21.875 20.3125 21.875H21.875C22.7378 21.875 23.4375 21.1753 23.4375 20.3125V17.6724C23.918 17.123 24.2188 16.4126 24.2188 15.625V13.2812C24.2188 11.9463 23.3779 10.8154 22.2002 10.3677ZM7.22314 7.72314C7.5791 6.8335 8.44092 6.25 9.39941 6.25H15.6006C16.5591 6.25 17.4209 6.8335 17.7769 7.72314L18.75 10.1562H6.25L7.22314 7.72314ZM4.6875 15.6152C3.75 15.6152 3.125 14.9922 3.125 14.0576C3.125 13.123 3.75 12.5 4.6875 12.5C5.625 12.5 7.03125 13.9019 7.03125 14.8364C7.03125 15.771 5.625 15.6152 4.6875 15.6152ZM20.3125 15.6152C19.375 15.6152 17.9688 15.771 17.9688 14.8364C17.9688 13.9019 19.375 12.5 20.3125 12.5C21.25 12.5 21.875 13.123 21.875 14.0576C21.875 14.9922 21.25 15.6152 20.3125 15.6152Z" fill="#1E272E"/>
</svg>
