<svg width="25" height="25" viewBox="0 0 25 25" fill="none" xmlns="http://www.w3.org/2000/svg">
<path d="M4.0625 6.25H2.1875C1.66797 6.25 1.25 6.66797 1.25 7.1875V11.25H0.3125C0.140625 11.25 0 11.3906 0 11.5625V13.4375C0 13.6094 0.140625 13.75 0.3125 13.75H1.25V17.8125C1.25 18.332 1.66797 18.75 2.1875 18.75H4.0625C4.58203 18.75 5 18.332 5 17.8125V7.1875C5 6.66797 4.58203 6.25 4.0625 6.25ZM24.6875 11.25H23.75V7.1875C23.75 6.66797 23.332 6.25 22.8125 6.25H20.9375C20.418 6.25 20 6.66797 20 7.1875V17.8125C20 18.332 20.418 18.75 20.9375 18.75H22.8125C23.332 18.75 23.75 18.332 23.75 17.8125V13.75H24.6875C24.8594 13.75 25 13.6094 25 13.4375V11.5625C25 11.3906 24.8594 11.25 24.6875 11.25ZM17.8125 3.75H15.9375C15.418 3.75 15 4.16797 15 4.6875V11.25H10V4.6875C10 4.16797 9.58203 3.75 9.0625 3.75H7.1875C6.66797 3.75 6.25 4.16797 6.25 4.6875V20.3125C6.25 20.832 6.66797 21.25 7.1875 21.25H9.0625C9.58203 21.25 10 20.832 10 20.3125V13.75H15V20.3125C15 20.832 15.418 21.25 15.9375 21.25H17.8125C18.332 21.25 18.75 20.832 18.75 20.3125V4.6875C18.75 4.16797 18.332 3.75 17.8125 3.75Z" fill="#1E272E"/>
</svg>
