<svg width="25" height="25" viewBox="0 0 25 25" fill="none" xmlns="http://www.w3.org/2000/svg">
<path fill-rule="evenodd" clip-rule="evenodd" d="M4.16675 7.73807V17.2619C4.16675 17.8933 4.4176 18.4989 4.86411 18.9455C5.31063 19.392 5.91623 19.6428 6.5477 19.6428H18.4525C19.0839 19.6428 19.6895 19.392 20.136 18.9455C20.5826 18.4989 20.8334 17.8933 20.8334 17.2619V7.73807C20.8334 7.1066 20.5826 6.501 20.136 6.05448C19.6895 5.60797 19.0839 5.35712 18.4525 5.35712H6.5477C5.91623 5.35712 5.31063 5.60797 4.86411 6.05448C4.4176 6.501 4.16675 7.1066 4.16675 7.73807V7.73807Z" stroke="#1E272E" stroke-width="1.5" stroke-linecap="round" stroke-linejoin="round"/>
<path d="M6.54761 8.92853L12.5 12.5L18.4524 8.92853" stroke="#1E272E" stroke-width="1.5" stroke-linecap="round" stroke-linejoin="round"/>
</svg>
