<svg width="25" height="25" viewBox="0 0 25 25" fill="none" xmlns="http://www.w3.org/2000/svg">
<path d="M16.166 2.08331C16.7628 2.08331 17.335 2.33024 17.757 2.76978C18.179 3.20932 18.416 3.80546 18.416 4.42706V20.5729C18.416 21.1945 18.179 21.7906 17.757 22.2302C17.335 22.6697 16.7628 22.9166 16.166 22.9166H8.66602C8.06928 22.9166 7.49698 22.6697 7.07503 22.2302C6.65307 21.7906 6.41602 21.1945 6.41602 20.5729V4.42706C6.41602 3.80546 6.65307 3.20932 7.07503 2.76978C7.49698 2.33024 8.06928 2.08331 8.66602 2.08331H16.166ZM16.166 3.64581H8.66602C8.4671 3.64581 8.27634 3.72812 8.13569 3.87464C7.99503 4.02115 7.91602 4.21986 7.91602 4.42706V20.5729C7.91602 21.0041 8.25202 21.3541 8.66602 21.3541H16.166C16.3649 21.3541 16.5557 21.2718 16.6963 21.1253C16.837 20.9788 16.916 20.7801 16.916 20.5729V4.42706C16.916 4.21986 16.837 4.02115 16.6963 3.87464C16.5557 3.72812 16.3649 3.64581 16.166 3.64581ZM13.665 18.2291C13.8639 18.2289 14.0548 18.3109 14.1956 18.4572C14.3365 18.6035 14.4158 18.8022 14.416 19.0094C14.4163 19.2166 14.3375 19.4154 14.1971 19.5621C14.0566 19.7088 13.8659 19.7914 13.667 19.7916L11.167 19.7958C11.0685 19.7959 10.971 19.7759 10.8799 19.7367C10.7889 19.6976 10.7061 19.6402 10.6364 19.5677C10.5667 19.4953 10.5113 19.4092 10.4735 19.3145C10.4357 19.2198 10.4161 19.1182 10.416 19.0156C10.4159 18.913 10.4352 18.8114 10.4727 18.7166C10.5103 18.6217 10.5654 18.5355 10.635 18.4629C10.7045 18.3902 10.7871 18.3326 10.8781 18.2932C10.969 18.2538 11.0665 18.2334 11.165 18.2333L13.665 18.2291Z" fill="#1E272E"/>
</svg>
