<svg width="80" height="80" viewBox="0 0 80 80" fill="none" xmlns="http://www.w3.org/2000/svg">
<rect width="80" height="80" rx="40" fill="white"/>
<g clip-path="url(#clip0_474_1262)">
<path d="M55.0683 58.0001C56.135 58.0001 57 57.1353 57 56.0684V24.9317C57 23.8647 56.135 23 55.0683 23H23.9317C22.8646 23 22 23.8647 22 24.9317V56.0684C22 57.1353 22.8646 58.0001 23.9317 58.0001H55.0683Z" fill="#395185"/>
<path d="M46.1494 58V44.4461H50.699L51.3801 39.164H46.1494V35.7914C46.1494 34.2621 46.5742 33.2199 48.7673 33.2199L51.5644 33.2187V28.4944C51.0805 28.43 49.4201 28.2861 47.4886 28.2861C43.4557 28.2861 40.6948 30.7478 40.6948 35.2685V39.164H36.1335V44.4461H40.6948V58H46.1494Z" fill="white"/>
</g>
<defs>
<clipPath id="clip0_474_1262">
<rect width="35" height="35" fill="white" transform="translate(22 23)"/>
</clipPath>
</defs>
</svg>
