<svg width="21" height="20" viewBox="0 0 21 20" fill="none" xmlns="http://www.w3.org/2000/svg">
<path fill-rule="evenodd" clip-rule="evenodd" d="M6.56226 0H14.4373C18.0611 0 20.9998 2.79875 20.9998 6.25V13.75C20.9998 17.2013 18.0611 20 14.4373 20H6.56226C2.93844 20 -0.000244141 17.2013 -0.000244141 13.75V6.25C-0.000244141 2.79875 2.93844 0 6.56226 0ZM14.4373 18.125C16.9704 18.125 19.031 16.1625 19.031 13.75V6.25C19.031 3.8375 16.9704 1.875 14.4373 1.875H6.56226C4.02913 1.875 1.96851 3.8375 1.96851 6.25V13.75C1.96851 16.1625 4.02913 18.125 6.56226 18.125H14.4373Z" fill="#1E2833"/>
<path fill-rule="evenodd" clip-rule="evenodd" d="M5.24976 10C5.24976 7.23875 7.60044 5 10.4998 5C13.3991 5 15.7498 7.23875 15.7498 10C15.7498 12.7613 13.3991 15 10.4998 15C7.60044 15 5.24976 12.7613 5.24976 10ZM7.21851 10C7.21851 11.7225 8.69113 13.125 10.4998 13.125C12.3084 13.125 13.781 11.7225 13.781 10C13.781 8.27625 12.3084 6.875 10.4998 6.875C8.69113 6.875 7.21851 8.27625 7.21851 10Z" fill="#1E2833"/>
<ellipse cx="16.1437" cy="4.62499" rx="0.699563" ry="0.666248" fill="#1E2833"/>
</svg>
