<svg width="80" height="80" viewBox="0 0 80 80" fill="none" xmlns="http://www.w3.org/2000/svg">
<rect width="80" height="80" rx="40" fill="white"/>
<path d="M46.2684 35.8022C48.1654 37.1827 50.4894 37.995 52.9993 37.995V33.0781C52.5242 33.0782 52.0505 33.0277 51.5857 32.9275V36.7978C49.076 36.7978 46.7524 35.9856 44.855 34.6052V44.6393C44.855 49.6589 40.8579 53.7277 35.9276 53.7277C34.088 53.7277 32.3781 53.1615 30.9578 52.1905C32.5789 53.878 34.8397 54.9248 37.3408 54.9248C42.2714 54.9248 46.2686 50.856 46.2686 45.8361V35.8022H46.2684V35.8022ZM48.0122 30.8416C47.0427 29.7634 46.4061 28.37 46.2684 26.8294V26.197H44.9289C45.2661 28.155 46.4162 29.8277 48.0121 30.8416H48.0122ZM34.0761 48.3387C33.5345 47.6157 33.2417 46.7312 33.243 45.8218C33.243 43.526 35.0712 41.6646 37.3269 41.6646C37.7471 41.6644 38.165 41.7301 38.5656 41.8594V36.8325C38.0974 36.7673 37.6249 36.7394 37.1527 36.7497V40.6623C36.7518 40.5329 36.3338 40.4672 35.9133 40.4676C33.6578 40.4676 31.8297 42.3288 31.8297 44.6249C31.8297 46.2484 32.7434 47.6539 34.0761 48.3387Z" fill="#FF004F"/>
<path d="M44.8549 34.6051C46.7524 35.9855 49.0758 36.7977 51.5856 36.7977V32.9274C50.1847 32.6235 48.9445 31.8783 48.0121 30.8416C46.416 29.8276 45.266 28.1549 44.9288 26.197H41.4104V45.8359C41.4024 48.1255 39.5773 49.9793 37.3266 49.9793C36.0004 49.9793 34.822 49.3357 34.0758 48.3386C32.7433 47.6539 31.8295 46.2483 31.8295 44.625C31.8295 42.3292 33.6576 40.4677 35.9131 40.4677C36.3453 40.4677 36.7618 40.5362 37.1525 40.6624V36.7498C32.3088 36.8517 28.4133 40.8808 28.4133 45.836C28.4133 48.3097 29.3834 50.5521 30.9578 52.1907C32.3781 53.1615 34.0879 53.7279 35.9276 53.7279C40.858 53.7279 44.855 49.6588 44.855 44.6393V34.6052H44.8549V34.6051Z" fill="black"/>
<path d="M51.5857 32.9272V31.881C50.3224 31.8829 49.084 31.5227 48.0122 30.8416C48.961 31.8991 50.2103 32.6283 51.5857 32.9274V32.9272ZM44.9288 26.1969C44.8967 26.0098 44.872 25.8215 44.8549 25.6324V25H39.9968V44.6391C39.989 46.9284 38.164 48.7822 35.9131 48.7822C35.275 48.7832 34.6457 48.6313 34.0759 48.3388C34.822 49.3357 36.0004 49.9791 37.3266 49.9791C39.5772 49.9791 41.4025 48.1256 41.4104 45.836V26.197H44.9288V26.1969ZM37.1528 36.7497V35.6356C36.7468 35.5791 36.3376 35.5508 35.9279 35.551C30.997 35.551 27 39.62 27 44.6391C27 47.7859 28.5709 50.5592 30.958 52.1904C29.3836 50.552 28.4135 48.3095 28.4135 45.8359C28.4135 40.8808 32.3089 36.8517 37.1528 36.7498V36.7497Z" fill="#00F2EA"/>
</svg>
