<svg width="22" height="16" viewBox="0 0 22 16" fill="none" xmlns="http://www.w3.org/2000/svg">
<path d="M21.483 1.881C20.7195 2.2 19.9058 2.41144 19.0575 2.51411C19.9302 2.01789 20.5963 1.23811 20.9094 0.298222C20.0958 0.760222 19.1974 1.08656 18.2401 1.26867C17.4675 0.485222 16.3664 0 15.1652 0C12.8347 0 10.9584 1.80156 10.9584 4.01011C10.9584 4.32789 10.9867 4.63344 11.056 4.92433C7.55631 4.76178 4.45962 3.16433 2.37934 0.730889C2.01616 1.331 1.80312 2.01789 1.80312 2.75733C1.80312 4.14578 2.55387 5.37655 3.67294 6.08911C2.99662 6.07689 2.33314 5.88989 1.77104 5.59533C1.77104 5.60755 1.77104 5.62344 1.77104 5.63933C1.77104 7.58755 3.23019 9.20578 5.14364 9.57855C4.80099 9.66778 4.42754 9.71055 4.03997 9.71055C3.77047 9.71055 3.49841 9.69589 3.24302 9.64211C3.78844 11.2298 5.33614 12.397 7.17644 12.4349C5.74424 13.5019 3.92576 14.1448 1.95712 14.1448C1.61191 14.1448 1.28081 14.1301 0.949707 14.0898C2.81439 15.235 5.02429 15.8889 7.40744 15.8889C15.1536 15.8889 19.3886 9.77778 19.3886 4.48067C19.3886 4.30344 19.3822 4.13233 19.3732 3.96244C20.2087 3.39778 20.9107 2.69255 21.483 1.881Z" fill="#1E2833"/>
</svg>
