<svg width="80" height="80" viewBox="0 0 80 80" fill="none" xmlns="http://www.w3.org/2000/svg">
<rect width="80" height="80" rx="40" fill="white"/>
<path d="M58 29.4096C56.7121 29.9692 55.3282 30.3474 53.8757 30.5175C55.3585 29.6467 56.4969 28.2677 57.033 26.6247C55.6235 27.4443 54.0814 28.0218 52.4733 28.3322C51.1634 26.9647 49.2973 26.1101 47.2319 26.1101C43.2662 26.1101 40.051 29.2606 40.051 33.1463C40.051 33.6978 40.1146 34.2348 40.237 34.7499C34.2692 34.4564 28.9782 31.6552 25.4365 27.3981C24.8185 28.4373 24.4644 29.6461 24.4644 30.9355C24.4644 33.3767 25.7322 35.5303 27.6588 36.7922C26.5185 36.7572 25.4033 36.4554 24.4063 35.912C24.4059 35.9415 24.4059 35.9709 24.4059 36.0005C24.4059 39.4097 26.881 42.2536 30.1658 42.9001C29.1084 43.1819 27.9993 43.2231 26.9231 43.0206C27.8368 45.8161 30.4888 47.8503 33.6308 47.9072C31.1733 49.7944 28.0771 50.9193 24.7129 50.9193C24.1333 50.9193 23.5618 50.886 23 50.821C26.1778 52.8174 29.9521 53.9823 34.0072 53.9823C47.2152 53.9823 54.4377 43.2604 54.4377 33.9623C54.4377 33.6571 54.4308 33.3537 54.4169 33.052C55.8227 32.0561 57.036 30.8227 58 29.4096Z" fill="#55ACEE"/>
</svg>
