<svg width="80" height="80" viewBox="0 0 80 80" fill="none" xmlns="http://www.w3.org/2000/svg">
<rect width="80" height="80" rx="40" fill="white"/>
<path d="M48.13 43C48.27 41.845 48.375 40.69 48.375 39.5C48.375 38.31 48.27 37.155 48.13 36H54.045C54.325 37.12 54.5 38.2925 54.5 39.5C54.5 40.7075 54.325 41.88 54.045 43H48.13ZM45.0325 52.73C46.0825 50.7875 46.8875 48.6875 47.4475 46.5H52.61C50.9145 49.4195 48.2247 51.631 45.0325 52.73V52.73ZM44.595 43H36.405C36.23 41.845 36.125 40.69 36.125 39.5C36.125 38.31 36.23 37.1375 36.405 36H44.595C44.7525 37.1375 44.875 38.31 44.875 39.5C44.875 40.69 44.7525 41.845 44.595 43ZM40.5 53.43C39.0475 51.33 37.875 49.0025 37.1575 46.5H43.8425C43.125 49.0025 41.9525 51.33 40.5 53.43ZM33.5 32.5H28.39C30.068 29.5726 32.7559 27.3576 35.95 26.27C34.9 28.2125 34.1125 30.3125 33.5 32.5ZM28.39 46.5H33.5C34.1125 48.6875 34.9 50.7875 35.95 52.73C32.7626 51.6304 30.0785 49.4185 28.39 46.5V46.5ZM26.955 43C26.675 41.88 26.5 40.7075 26.5 39.5C26.5 38.2925 26.675 37.12 26.955 36H32.87C32.73 37.155 32.625 38.31 32.625 39.5C32.625 40.69 32.73 41.845 32.87 43H26.955ZM40.5 25.5525C41.9525 27.6525 43.125 29.9975 43.8425 32.5H37.1575C37.875 29.9975 39.0475 27.6525 40.5 25.5525V25.5525ZM52.61 32.5H47.4475C46.8998 30.3326 46.0888 28.2403 45.0325 26.27C48.2525 27.3725 50.93 29.595 52.61 32.5ZM40.5 22C30.8225 22 23 29.875 23 39.5C23 44.1413 24.8437 48.5925 28.1256 51.8744C29.7507 53.4994 31.6798 54.7884 33.803 55.6679C35.9262 56.5474 38.2019 57 40.5 57C45.1413 57 49.5925 55.1563 52.8744 51.8744C56.1563 48.5925 58 44.1413 58 39.5C58 37.2019 57.5474 34.9262 56.6679 32.803C55.7884 30.6798 54.4994 28.7507 52.8744 27.1256C51.2493 25.5006 49.3202 24.2116 47.197 23.3321C45.0738 22.4527 42.7981 22 40.5 22V22Z" fill="#1E272E"/>
</svg>
