<svg width="80" height="80" viewBox="0 0 80 80" fill="none" xmlns="http://www.w3.org/2000/svg">
<rect width="80" height="80" rx="40" fill="white"/>
<g clip-path="url(#clip0_883_2133)">
<path d="M57.227 31.7433C57.0263 31.0198 56.6347 30.3602 56.0912 29.8302C55.5478 29.3001 54.8714 28.9182 54.1295 28.7224C51.4135 28 40.4823 28 40.4823 28C40.4823 28 29.5505 28.0219 26.8344 28.7443C26.0925 28.9401 25.4162 29.322 24.8727 29.8521C24.3293 30.3821 23.9377 31.0418 23.7369 31.7653C22.9154 36.4717 22.5967 43.6432 23.7595 48.1613C23.9603 48.8849 24.3519 49.5445 24.8953 50.0745C25.4388 50.6045 26.1151 50.9865 26.857 51.1823C29.5731 51.9047 40.5045 51.9047 40.5045 51.9047C40.5045 51.9047 51.4359 51.9047 54.1518 51.1823C54.8937 50.9865 55.5701 50.6045 56.1136 50.0745C56.6571 49.5445 57.0487 48.8849 57.2494 48.1613C58.116 43.4483 58.383 36.2813 57.227 31.7435V31.7433Z" fill="#FF0000"/>
<path d="M37.0027 45.0746L46.0711 39.9522L37.0028 34.8298L37.0027 45.0746Z" fill="white"/>
</g>
<defs>
<clipPath id="clip0_883_2133">
<rect width="35" height="24" fill="white" transform="translate(23 28)"/>
</clipPath>
</defs>
</svg>
