<svg width="90" height="90" viewBox="0 0 90 90" fill="none" xmlns="http://www.w3.org/2000/svg">
<g filter="url(#filter0_d_1174_1840)">
<rect width="50" height="50" rx="25" transform="matrix(-1 0 0 1 70 13)" fill="white"/>
<path d="M53.6958 37.3485H54.7828V39.5224H53.6958V37.3485ZM36.4857 38.4355L35.8629 39.3263L34.5492 38.408L35.8884 37.5273L36.4857 38.4355ZM41.3367 32.1865L41.716 31.1679L43.7532 31.9267L43.3738 32.9453L41.3367 32.1865ZM43.3095 43.7846L43.8299 44.7389L41.9214 45.7797L41.401 44.8254L43.3095 43.7846ZM53.6958 39.5224H36.4857V37.3485H53.6958V39.5224ZM43.3738 32.9453C43.058 33.7931 42.4669 34.6101 41.8343 35.3257C41.1907 36.0537 40.4455 36.7417 39.7501 37.3291C39.0523 37.9185 38.389 38.4196 37.9009 38.773C37.6563 38.9501 37.4544 39.091 37.3125 39.1885C37.2415 39.2372 37.1855 39.2751 37.1465 39.3012C37.127 39.3143 37.1118 39.3245 37.1011 39.3316C37.0958 39.3351 37.0916 39.3379 37.0885 39.3399C37.087 39.3409 37.0858 39.3417 37.0849 39.3424C37.0844 39.3427 37.084 39.3429 37.0837 39.3431C37.0835 39.3432 37.0833 39.3434 37.0833 39.3434C37.0831 39.3435 37.0829 39.3436 36.4857 38.4355C35.8884 37.5273 35.8883 37.5274 35.8882 37.5274C35.8882 37.5274 35.8881 37.5275 35.8881 37.5275C35.8881 37.5275 35.8882 37.5275 35.8883 37.5274C35.8885 37.5272 35.8891 37.5269 35.8899 37.5263C35.8916 37.5252 35.8944 37.5234 35.8983 37.5208C35.9061 37.5156 35.9184 37.5074 35.9349 37.4963C35.9679 37.4742 36.0176 37.4405 36.082 37.3964C36.2107 37.3079 36.3977 37.1774 36.6259 37.0122C37.0835 36.6809 37.7017 36.2136 38.3474 35.6683C38.9955 35.1209 39.6557 34.5078 40.2056 33.8858C40.7665 33.2514 41.1568 32.6693 41.3367 32.1865L43.3738 32.9453ZM36.4857 38.4355C37.1084 37.5446 37.1086 37.5447 37.1087 37.5448C37.1088 37.5448 37.1089 37.5449 37.1091 37.545C37.1094 37.5452 37.1097 37.5455 37.1102 37.5458C37.111 37.5464 37.1121 37.5472 37.1135 37.5481C37.1162 37.55 37.12 37.5527 37.1248 37.5561C37.1343 37.5628 37.1479 37.5724 37.1652 37.5848C37.2 37.6095 37.25 37.6454 37.3135 37.6916C37.4405 37.784 37.6218 37.9179 37.8434 38.0871C38.286 38.425 38.8929 38.9062 39.5512 39.4806C40.8394 40.6045 42.4331 42.1775 43.3095 43.7846L41.401 44.8254C40.7204 43.5775 39.3793 42.2157 38.122 41.1186C37.5075 40.5825 36.9389 40.1316 36.5243 39.8151C36.3173 39.657 36.1495 39.5331 36.0346 39.4495C35.9771 39.4077 35.9329 39.376 35.9038 39.3552C35.8892 39.3448 35.8783 39.3372 35.8715 39.3323C35.868 39.3299 35.8656 39.3282 35.8641 39.3272C35.8634 39.3267 35.863 39.3264 35.8628 39.3262C35.8627 39.3261 35.8626 39.3261 35.8627 39.3261C35.8627 39.3261 35.8627 39.3262 35.8628 39.3262C35.8628 39.3263 35.8629 39.3263 36.4857 38.4355Z" fill="#1E1E1E"/>
</g>
<defs>
<filter id="filter0_d_1174_1840" x="0.46875" y="0.5" width="89.0625" height="89.0625" filterUnits="userSpaceOnUse" color-interpolation-filters="sRGB">
<feFlood flood-opacity="0" result="BackgroundImageFix"/>
<feColorMatrix in="SourceAlpha" type="matrix" values="0 0 0 0 0 0 0 0 0 0 0 0 0 0 0 0 0 0 127 0" result="hardAlpha"/>
<feOffset dy="7.03125"/>
<feGaussianBlur stdDeviation="9.76562"/>
<feComposite in2="hardAlpha" operator="out"/>
<feColorMatrix type="matrix" values="0 0 0 0 0 0 0 0 0 0 0 0 0 0 0 0 0 0 0.06 0"/>
<feBlend mode="normal" in2="BackgroundImageFix" result="effect1_dropShadow_1174_1840"/>
<feBlend mode="normal" in="SourceGraphic" in2="effect1_dropShadow_1174_1840" result="shape"/>
</filter>
</defs>
</svg>
