<svg width="90" height="90" viewBox="0 0 90 90" fill="none" xmlns="http://www.w3.org/2000/svg">
<g filter="url(#filter0_d_1174_1837)">
<rect x="20" y="13" width="50" height="50" rx="25" fill="white"/>
<path d="M36.3042 37.3485H35.2172V39.5224H36.3042V37.3485ZM53.5143 38.4355L54.1371 39.3263L55.4508 38.408L54.1116 37.5273L53.5143 38.4355ZM48.6633 32.1865L48.284 31.1679L46.2468 31.9267L46.6262 32.9453L48.6633 32.1865ZM46.6905 43.7846L46.1701 44.7389L48.0786 45.7797L48.599 44.8254L46.6905 43.7846ZM36.3042 39.5224H53.5143V37.3485H36.3042V39.5224ZM46.6262 32.9453C46.942 33.7931 47.5331 34.6101 48.1657 35.3257C48.8093 36.0537 49.5545 36.7417 50.2499 37.3291C50.9477 37.9185 51.611 38.4196 52.0991 38.773C52.3437 38.9501 52.5456 39.091 52.6875 39.1885C52.7585 39.2372 52.8145 39.2751 52.8535 39.3012C52.873 39.3143 52.8882 39.3245 52.8989 39.3316C52.9042 39.3351 52.9084 39.3379 52.9115 39.3399C52.913 39.3409 52.9142 39.3417 52.9151 39.3424C52.9156 39.3427 52.916 39.3429 52.9163 39.3431C52.9165 39.3432 52.9167 39.3434 52.9167 39.3434C52.9169 39.3435 52.9171 39.3436 53.5143 38.4355C54.1116 37.5273 54.1117 37.5274 54.1118 37.5274C54.1118 37.5274 54.1119 37.5275 54.1119 37.5275C54.1119 37.5275 54.1118 37.5275 54.1117 37.5274C54.1115 37.5272 54.1109 37.5269 54.1101 37.5263C54.1084 37.5252 54.1056 37.5234 54.1017 37.5208C54.0939 37.5156 54.0816 37.5074 54.0651 37.4963C54.0321 37.4742 53.9824 37.4405 53.918 37.3964C53.7893 37.3079 53.6023 37.1774 53.3741 37.0122C52.9165 36.6809 52.2983 36.2136 51.6526 35.6683C51.0045 35.1209 50.3443 34.5078 49.7944 33.8858C49.2335 33.2514 48.8432 32.6693 48.6633 32.1865L46.6262 32.9453ZM53.5143 38.4355C52.8916 37.5446 52.8914 37.5447 52.8913 37.5448C52.8912 37.5448 52.8911 37.5449 52.8909 37.545C52.8906 37.5452 52.8903 37.5455 52.8898 37.5458C52.889 37.5464 52.8879 37.5472 52.8865 37.5481C52.8838 37.55 52.88 37.5527 52.8752 37.5561C52.8657 37.5628 52.8521 37.5724 52.8348 37.5848C52.8 37.6095 52.75 37.6454 52.6865 37.6916C52.5595 37.784 52.3782 37.9179 52.1566 38.0871C51.714 38.425 51.1071 38.9062 50.4488 39.4806C49.1606 40.6045 47.5669 42.1775 46.6905 43.7846L48.599 44.8254C49.2796 43.5775 50.6207 42.2157 51.878 41.1186C52.4925 40.5825 53.0611 40.1316 53.4757 39.8151C53.6827 39.657 53.8505 39.5331 53.9654 39.4495C54.0229 39.4077 54.0671 39.376 54.0962 39.3552C54.1108 39.3448 54.1217 39.3372 54.1285 39.3323C54.132 39.3299 54.1344 39.3282 54.1359 39.3272C54.1366 39.3267 54.137 39.3264 54.1372 39.3262C54.1373 39.3261 54.1374 39.3261 54.1373 39.3261C54.1373 39.3261 54.1373 39.3262 54.1372 39.3262C54.1372 39.3263 54.1371 39.3263 53.5143 38.4355Z" fill="#1E1E1E"/>
</g>
<defs>
<filter id="filter0_d_1174_1837" x="0.46875" y="0.5" width="89.0625" height="89.0625" filterUnits="userSpaceOnUse" color-interpolation-filters="sRGB">
<feFlood flood-opacity="0" result="BackgroundImageFix"/>
<feColorMatrix in="SourceAlpha" type="matrix" values="0 0 0 0 0 0 0 0 0 0 0 0 0 0 0 0 0 0 127 0" result="hardAlpha"/>
<feOffset dy="7.03125"/>
<feGaussianBlur stdDeviation="9.76562"/>
<feComposite in2="hardAlpha" operator="out"/>
<feColorMatrix type="matrix" values="0 0 0 0 0 0 0 0 0 0 0 0 0 0 0 0 0 0 0.06 0"/>
<feBlend mode="normal" in2="BackgroundImageFix" result="effect1_dropShadow_1174_1837"/>
<feBlend mode="normal" in="SourceGraphic" in2="effect1_dropShadow_1174_1837" result="shape"/>
</filter>
</defs>
</svg>
